<!-- icon666.com - MILLIONS vector ICONS FREE --><svg viewBox="0 0 32 32" xmlns="http://www.w3.org/2000/svg"><g id="_24_Fullscreen" data-name="24 Fullscreen"><rect fill="#8ac9fe" height="18" rx="1" width="18" x="7" y="7"></rect><g fill="#26a6fe"><path d="m8.265 18.793-3.029 3.029-1.529-1.529a1.011 1.011 0 0 0 -1.707.707v8a1 1 0 0 0 1 1h8a1.011 1.011 0 0 0 .707-1.707l-1.529-1.529 3.029-3.029c3.376-4.068-2.207-7.818-4.942-4.942z"></path><path d="m28.293 20.293-1.529 1.529-3.028-3.029c-2.735-2.877-8.319.873-4.942 4.941l3.029 3.029-1.529 1.529a1.011 1.011 0 0 0 .706 1.708h8a1 1 0 0 0 1-1v-8a1.011 1.011 0 0 0 -1.707-.707z"></path><path d="m13.207 8.265-3.029-3.029 1.529-1.529a1.011 1.011 0 0 0 -.707-1.707h-8a1 1 0 0 0 -1 1v8a1.011 1.011 0 0 0 1.707.707l1.529-1.529 3.028 3.029c2.736 2.876 8.319-.874 4.943-4.942z"></path><path d="m29 2h-8a1.011 1.011 0 0 0 -.707 1.707l1.529 1.529-3.029 3.029c-3.376 4.068 2.207 7.818 4.942 4.941l3.028-3.029 1.529 1.529a1.011 1.011 0 0 0 1.708-.706v-8a1 1 0 0 0 -1-1z"></path></g></g><g id="Layer_52" data-name="Layer 52"><path d="m26.76 10.18 1.53 1.53a1.015 1.015 0 0 0 1.71-.71v-8a1 1 0 0 0 -1-1h-8a1.015 1.015 0 0 0 -.71 1.71l1.53 1.53-1.76 1.76h-8.12l-1.76-1.76 1.53-1.53a1.015 1.015 0 0 0 -.71-1.71h-8a1 1 0 0 0 -1 1v8a1.015 1.015 0 0 0 1.71.71l1.53-1.53 1.76 1.77v8.1l-1.76 1.77-1.53-1.53a1.015 1.015 0 0 0 -1.71.71v8a1 1 0 0 0 1 1h8a1.015 1.015 0 0 0 .71-1.71l-1.53-1.53 1.76-1.76h8.12l1.76 1.76-1.53 1.53a1.015 1.015 0 0 0 .71 1.71h8a1 1 0 0 0 1-1v-8a1.015 1.015 0 0 0 -1.71-.71l-1.53 1.53-1.76-1.77v-8.1zm-20.82-2.12c-.71-.71-1.43.02-1.94.53v-4.59h4.59c-.51.51-1.25 1.23-.53 1.94l3.73 3.74a1.493 1.493 0 0 1 -2.11 2.11zm2.65 19.94h-4.59v-4.59c.51.51 1.23 1.25 1.94.53l3.74-3.73a1.493 1.493 0 0 1 2.11 2.11l-3.73 3.74c-.72.71.02 1.43.53 1.94zm5.14-5c1.99-3.43-2.05-6.34-4.73-4.79v-4.42c2.68 1.55 6.72-1.36 4.73-4.79h4.54c-1.99 3.43 2.05 6.34 4.73 4.79v4.42c-2.68-1.55-6.72 1.36-4.73 4.79zm12.33.94c.71.71 1.43-.02 1.94-.53v4.59h-4.59c.51-.51 1.25-1.23.53-1.94l-3.73-3.74a1.493 1.493 0 0 1 2.11-2.11zm-3.74-12.15a1.493 1.493 0 0 1 -2.11-2.11l3.73-3.74c.72-.71-.02-1.43-.53-1.94h4.59v4.59c-.51-.51-1.23-1.25-1.94-.53z"></path></g></svg>